<?xml version="1.0" encoding="UTF-8"?><svg id="Layer_2" xmlns="http://www.w3.org/2000/svg" viewBox="0 0 50.18 50.18"><defs><style>.cls-1{fill:none;}.cls-2{fill:#f0f9fe;}</style></defs><g id="Layer_1-2"><path class="cls-2" d="M25.09,24.35c-.83,0-1.5-.67-1.5-1.5V7.41c0-.83.67-1.5,1.5-1.5s1.5.67,1.5,1.5v15.44c0,.83-.67,1.5-1.5,1.5Z"/><path class="cls-2" d="M25.09,39.29c-8.09,0-14.68-6.59-14.68-14.68,0-6,3.6-11.34,9.17-13.6.77-.31,1.64.06,1.95.83.31.77-.06,1.64-.83,1.95-4.43,1.8-7.3,6.05-7.3,10.82,0,6.44,5.24,11.68,11.68,11.68s11.68-5.24,11.68-11.68c0-4.78-2.86-9.02-7.3-10.82-.77-.31-1.14-1.19-.83-1.95.31-.77,1.19-1.14,1.95-.83,5.57,2.26,9.17,7.6,9.17,13.6,0,8.09-6.59,14.68-14.68,14.68Z"/><circle class="cls-1" cx="25.09" cy="25.09" r="25.09"/></g></svg>